<svg version="1" xmlns="http://www.w3.org/2000/svg" width="682.667" height="682.667" viewBox="0 0 512.000000 512.000000"><path d="M0 256v256h512V0H0v256zM481 90.7c0 .5-3.1 21-7 45.8l-7 45-16.7 61.2-16.8 61.3H405v-3.8c.1-2 .7-29 1.4-60l1.4-56.3 7.3-47 7.4-46.9h29.2c16.1 0 29.3.3 29.3.7zm-318 8c0 .4-4.3 17.7-9.5 38.4s-9.5 38-9.5 38.3c0 .3 9.7.6 21.5.6h21.4l.9-3.3c.5-1.7 4.9-19.3 9.8-39l8.9-35.7h45.3l-9.4 37.2c-5.1 20.5-9.4 38.1-9.4 39 0 1.7 1.8 1.8 24.6 1.8 22.9 0 24.5.1 24 1.7-.3 1-2.4 9.2-4.6 18.3-2.3 9.1-4.5 18.2-5.1 20.2l-1 3.8h-49.8l-1 3.7c-.8 3-10.8 43.7-13.6 55l-.5 2.3h49.8l-5.5 22-5.5 22-25.1.2-25.1.3-9.1 36c-5.1 19.8-9.5 37.2-9.9 38.8l-.6 2.7h-22.5c-13.4 0-22.5-.4-22.5-.9 0-.6 4.3-17.8 9.5-38.4 5.2-20.5 9.5-37.7 9.5-38 0-.4-9.6-.7-21.4-.7h-21.4l-9.7 39-9.7 39h-23c-19.3 0-22.9-.2-22.5-1.4.7-1.8 18.4-71.4 18.9-74.1.3-1.9-.4-2-24.3-2.5l-24.6-.5 5.3-21.5c2.9-11.8 5.3-21.6 5.4-21.7 0-.2 11.3-.4 25.2-.5l25.2-.3 7.3-29.5c3.9-16.2 7.2-29.8 7.3-30.3 0-.4-11-.7-24.5-.7-16.5 0-24.5-.3-24.5-1.1 0-.5 2.3-10.4 5.1-22l5.1-20.9h50.3l8.9-35.8c4.9-19.6 9.3-37.2 9.8-39l.9-3.2h22.4c12.4 0 22.5.3 22.5.7zm264.5 246.7c5.9 2.8 10.8 7.4 13.8 13 1.9 3.5 2.2 5.7 2.2 15.6 0 11-.2 11.9-3.2 18.1-4.2 8.4-11.8 16-20.2 20.2-6.1 3-7.2 3.2-17.1 3.2-9.8 0-10.9-.2-16-3-6.2-3.4-11.4-9.6-13.2-15.8-.7-2.3-1.3-8.3-1.3-13.2 0-8 .4-9.7 3.2-15.7 5-10.7 12.7-18.1 23.2-22.4 8.1-3.4 21.5-3.4 28.6 0z"/><path d="M132.6 221.7c-1.6 5.4-14.6 57.1-14.6 58.1 0 .9 5.2 1.2 21.2 1l21.1-.3 7.4-29c4-16 7.3-29.6 7.3-30.3 0-.9-4.8-1.2-20.9-1.2-19.1 0-21 .2-21.5 1.7z"/></svg>